# MagicaVoxel @ Ephtracy

# group
o 

# material
mtllib mesita con cristal.mtl
usemtl palette

# normals
vn -1 0 0
vn 1 0 0
vn 0 0 1
vn 0 0 -1
vn 0 -1 0
vn 0 1 0

# texcoords
vt 0.115234 0.5
vt 0.119141 0.5
vt 0.251953 0.5

# verts
v -0.9 0 -1.2
v -0.9 0 -2
v -0.9 0.4 -1.2
v -0.9 0.4 -2
v -0.9 0.8 -1.2
v -0.9 0.8 -2
v -0.9 0.9 -1.2
v -0.9 0.9 -2
v 1.1 0.3 -1.3
v 1.1 0.3 -1.9
v 1.1 0.4 -1.3
v 1.1 0.4 -1.9
v 1.1 0.5 -1.3
v 1.1 0.7 -1.3
v 1.1 0.7 -1.9
v -0.8 0.3 -1.3
v -0.8 0.3 -1.9
v -0.8 0.4 -1.3
v -0.8 0.4 -1.9
v -0.8 0.5 -1.3
v -0.8 0.7 -1.3
v -0.8 0.7 -1.9
v 1.2 0 -1.2
v 1.2 0 -2
v 1.2 0.4 -1.2
v 1.2 0.4 -2
v 1.2 0.8 -1.2
v 1.2 0.8 -2
v 1.2 0.9 -1.2
v 1.2 0.9 -2
v -0.9 0 -1.2
v -0.9 0.4 -1.2
v -0.9 0.8 -1.2
v -0.9 0.9 -1.2
v -0.8 0.5 -1.2
v -0.8 0.8 -1.2
v 1.1 0.5 -1.2
v 1.1 0.8 -1.2
v 1.2 0 -1.2
v 1.2 0.4 -1.2
v 1.2 0.8 -1.2
v 1.2 0.9 -1.2
v -0.8 0.3 -1.9
v -0.8 0.4 -1.9
v -0.8 0.7 -1.9
v 1.1 0.3 -1.9
v 1.1 0.4 -1.9
v 1.1 0.7 -1.9
v -0.8 0.3 -1.3
v -0.8 0.4 -1.3
v -0.8 0.5 -1.3
v -0.8 0.7 -1.3
v 1.1 0.3 -1.3
v 1.1 0.4 -1.3
v 1.1 0.5 -1.3
v 1.1 0.7 -1.3
v -0.9 0 -2
v -0.9 0.4 -2
v -0.9 0.8 -2
v -0.9 0.9 -2
v 1.2 0 -2
v 1.2 0.4 -2
v 1.2 0.8 -2
v 1.2 0.9 -2
v -0.9 0 -1.2
v 1.2 0 -1.2
v -0.9 0 -2
v 1.2 0 -2
v -0.8 0.7 -1.3
v 1.1 0.7 -1.3
v -0.8 0.7 -1.9
v 1.1 0.7 -1.9
v -0.8 0.3 -1.3
v 1.1 0.3 -1.3
v -0.8 0.3 -1.9
v 1.1 0.3 -1.9
v -0.9 0.9 -1.2
v 1.2 0.9 -1.2
v -0.9 0.9 -2
v 1.2 0.9 -2

# faces
f 3/2/1 2/2/1 1/2/1
f 4/2/1 2/2/1 3/2/1
f 5/1/1 4/1/1 3/1/1
f 6/1/1 4/1/1 5/1/1
f 7/3/1 6/3/1 5/3/1
f 8/3/1 6/3/1 7/3/1
f 11/2/1 10/2/1 9/2/1
f 12/2/1 10/2/1 11/2/1
f 13/1/1 12/1/1 11/1/1
f 14/1/1 12/1/1 13/1/1
f 15/1/1 12/1/1 14/1/1
f 16/2/2 17/2/2 18/2/2
f 18/2/2 17/2/2 19/2/2
f 18/1/2 19/1/2 20/1/2
f 20/1/2 19/1/2 21/1/2
f 21/1/2 19/1/2 22/1/2
f 23/2/2 24/2/2 25/2/2
f 25/2/2 24/2/2 26/2/2
f 25/1/2 26/1/2 27/1/2
f 27/1/2 26/1/2 28/1/2
f 27/3/2 28/3/2 29/3/2
f 29/3/2 28/3/2 30/3/2
f 35/1/3 33/1/3 32/1/3
f 36/3/3 34/3/3 33/3/3
f 36/1/3 33/1/3 35/1/3
f 37/1/3 35/1/3 32/1/3
f 37/3/3 36/3/3 35/3/3
f 38/3/3 34/3/3 36/3/3
f 38/3/3 36/3/3 37/3/3
f 39/2/3 32/2/3 31/2/3
f 40/1/3 37/1/3 32/1/3
f 40/2/3 32/2/3 39/2/3
f 40/1/3 38/1/3 37/1/3
f 41/3/3 34/3/3 38/3/3
f 41/1/3 38/1/3 40/1/3
f 42/3/3 34/3/3 41/3/3
f 46/2/3 44/2/3 43/2/3
f 47/1/3 45/1/3 44/1/3
f 47/2/3 44/2/3 46/2/3
f 48/1/3 45/1/3 47/1/3
f 49/2/4 50/2/4 53/2/4
f 50/1/4 51/1/4 54/1/4
f 53/2/4 50/2/4 54/2/4
f 51/3/4 52/3/4 55/3/4
f 54/1/4 51/1/4 55/1/4
f 55/3/4 52/3/4 56/3/4
f 57/2/4 58/2/4 61/2/4
f 58/1/4 59/1/4 62/1/4
f 61/2/4 58/2/4 62/2/4
f 59/3/4 60/3/4 63/3/4
f 62/1/4 59/1/4 63/1/4
f 63/3/4 60/3/4 64/3/4
f 67/2/5 66/2/5 65/2/5
f 68/2/5 66/2/5 67/2/5
f 71/3/5 70/3/5 69/3/5
f 72/3/5 70/3/5 71/3/5
f 73/2/6 74/2/6 75/2/6
f 75/2/6 74/2/6 76/2/6
f 77/3/6 78/3/6 79/3/6
f 79/3/6 78/3/6 80/3/6
